<svg id="Capa_2" data-name="Capa 2" xmlns="http://www.w3.org/2000/svg" viewBox="0 0 148.77 145.42"><defs><style>.cls-1{fill:#3d3d3b;}.cls-2{fill:none;stroke:#585857;stroke-miterlimit:10;stroke-width:2px;}</style></defs><title>insumos</title><path class="cls-1" d="M29.15,72.72a4.2,4.2,0,0,0,3,3.79l31.68,9.58L65,107.93a2.15,2.15,0,0,0,1.46,1.91,2,2,0,0,0,.71.12,2.16,2.16,0,0,0,1.62-.72L80,96.84l15.88,11a4.16,4.16,0,0,0,2.4.75,4.25,4.25,0,0,0,4.14-3.38L115.59,38a2.16,2.16,0,0,0-2.93-2.42l-81,33A4.24,4.24,0,0,0,29.15,72.72ZM69,102.52,68.3,88.74l8.11,5.61Zm29.18,1.67-28.9-20L109.82,45Zm7.18-60.93L65.31,82,33.67,72.46Z"/><polyline class="cls-2" points="16.4 41.02 16.4 14.72 42.69 14.72"/><polyline class="cls-2" points="42.69 130.7 16.4 130.7 16.4 104.41"/><polyline class="cls-2" points="132.38 104.41 132.38 130.7 106.08 130.7"/><polyline class="cls-2" points="106.08 14.72 132.38 14.72 132.38 41.02"/></svg>