<svg id="Capa_2" data-name="Capa 2" xmlns="http://www.w3.org/2000/svg" viewBox="0 0 143.95 213.82"><defs><style>.cls-1{fill:#fff;}</style></defs><title>insumos</title><path class="cls-1" d="M117,114.07a8.78,8.78,0,0,0-10,7.38,17,17,0,1,1-3.85-13.55,8.79,8.79,0,0,0,13.39-11.38,34.49,34.49,0,0,0-39.4-9.59h0a3,3,0,0,1-3.92-1.5l1.85-2.81h0l27.2-41.44a8.78,8.78,0,1,0-14.68-9.64L57.78,77,71.09,39.29a8.26,8.26,0,0,0-15.57-5.5L42.39,71V54.56a8.25,8.25,0,0,0-16.5,0V193.41H73.62l-.38-19.08,35.68-26.4a33.73,33.73,0,0,0,3.61-2.68l.06,0h0a34.37,34.37,0,0,0,11.79-21.15A8.77,8.77,0,0,0,117,114.07Z"/></svg>