<svg id="Capa_2" data-name="Capa 2" xmlns="http://www.w3.org/2000/svg" viewBox="0 0 131.94 183.92"><defs><style>.cls-1{fill:#fff;}.cls-2{fill:none;stroke:#fff;stroke-miterlimit:10;stroke-width:2px;}</style></defs><title>insumos</title><path class="cls-1" d="M75.23,91.07a12.2,12.2,0,0,0-23.42,6.74c4.39,15.26,20.45,29,35.16,40.6a2.44,2.44,0,0,0,3-3.83c-14.11-11.17-29.5-24.25-33.49-38.12a7.32,7.32,0,1,1,14.07-4c2.67,9.27,15.91,20.72,28.51,30.69a2.44,2.44,0,0,0,3-3.82C95.45,114,77.84,100.09,75.23,91.07Z"/><path class="cls-1" d="M93.71,84.78A31.7,31.7,0,0,0,33,103.18v0c4,13.91-4.58,17.77-7.32,18.62a2.44,2.44,0,0,0,1.47,4.65c7.45-2.33,14.7-10.18,10.54-24.62A26.82,26.82,0,0,1,56.09,68.66h0a27,27,0,0,1,33.07,18,2.7,2.7,0,0,0,.24.55c.26.41.78,1.3,16.46,14A2.44,2.44,0,1,0,109,97.42C103.26,92.8,94.93,85.93,93.71,84.78Z"/><path class="cls-1" d="M84.61,88.37a22,22,0,0,0-27.15-15,22.38,22.38,0,0,0-15.07,27c4.93,22.44,1.24,27.62-8.86,30.78A2.44,2.44,0,0,0,35,135.79c14.12-4.39,17.19-13.62,12.19-36.48A17.57,17.57,0,0,1,58.83,78,17.14,17.14,0,0,1,80,89.74c1,3.32,3.56,7.89,23.54,23.7a2.44,2.44,0,0,0,3-3.83C88.4,95.27,85.29,90.73,84.61,88.37Z"/><path class="cls-1" d="M91.32,122.32c-8.25-6.26-22.06-16.74-25.46-28.55a2.44,2.44,0,0,0-4.69,1.34c3.84,13.38,18.46,24.47,27.2,31.1a63.26,63.26,0,0,1,5.12,4.09,2.44,2.44,0,0,0,3.45-3.44A62.65,62.65,0,0,0,91.32,122.32Z"/><path class="cls-1" d="M78.12,139.28A15.93,15.93,0,0,0,66,131c-8.29,0-9.58,14.1-9.76,16.92a2.45,2.45,0,0,0,2.29,2.59h.15a2.44,2.44,0,0,0,2.44-2.29c.31-5,2.23-12.34,4.88-12.34,3.61,0,6.18,3.48,8.24,6.28a25.63,25.63,0,0,0,2.23,2.76,2.44,2.44,0,0,0,3.44-3.45A22.06,22.06,0,0,1,78.12,139.28Z"/><path class="cls-1" d="M56.09,118.09a2.44,2.44,0,0,0-4.65,1.46c2.09,6.52-2,19.32-8.18,21.32a2.44,2.44,0,0,0,1.45,4.66l0,0C54.15,142.49,58.68,126.19,56.09,118.09Z"/><path class="cls-1" d="M108.17,84.8c-3-1-5.44-4.88-8.22-9.33C94.08,66,86,53,63.52,53A41.51,41.51,0,0,0,22.06,94.44a2.44,2.44,0,0,0,4.88,0A36.61,36.61,0,0,1,63.52,57.86c19.79,0,26.72,11.19,32.29,20.18,3.28,5.29,6.11,9.86,10.86,11.4a2.44,2.44,0,1,0,1.55-4.62l0,0Z"/><path class="cls-1" d="M26.94,114a2.44,2.44,0,0,0,2.18-3.53,21.48,21.48,0,0,1-2.18-6.23,2.44,2.44,0,0,0-4.88,0,24.67,24.67,0,0,0,2.7,8.41A2.42,2.42,0,0,0,26.94,114Z"/><path class="cls-1" d="M25.67,62.38A2.44,2.44,0,0,0,29,61.56h0C31.14,58.07,41.57,48.1,61.08,48.1c18.75,0,32.09,9.5,34.5,13.46A2.44,2.44,0,0,0,99.75,59h0C96.4,53.51,81.63,43.22,61.08,43.22,39.23,43.22,27.52,54.63,24.85,59A2.44,2.44,0,0,0,25.67,62.38Z"/><path class="cls-1" d="M40.11,43c1.11-.49,2.06-1,3-1.47,3.66-1.84,6.3-3.19,18-3.19a55.27,55.27,0,0,1,23.18,3.71c.94.34,1.87.69,2.85,1a2.73,2.73,0,0,0,.8.13,2.44,2.44,0,0,0,.79-4.74L86,37.5a60,60,0,0,0-24.88-4c-12.9,0-16.13,1.66-20.22,3.76-.83.42-1.7.87-2.73,1.33a2.44,2.44,0,0,0,1.8,4.53l.19-.08Z"/><path class="cls-1" d="M105.09,75.67a2.44,2.44,0,0,0,4.65-1.46,61.06,61.06,0,0,0-5.13-10.3,2.44,2.44,0,1,0-4.15,2.56A58.25,58.25,0,0,1,105.09,75.67Z"/><path class="cls-1" d="M26.45,126.59a2.44,2.44,0,0,1-.73-4.77C28.45,121,37,117.11,33,103.2A31.71,31.71,0,0,1,54.74,64h0A31.91,31.91,0,0,1,93.72,84.78c1.21,1.14,9.54,8,15.23,12.64a2.44,2.44,0,0,1-3.07,3.79c-15.68-12.73-16.2-13.61-16.46-14a2.14,2.14,0,0,1-.23-.54,26.83,26.83,0,0,0-51.46,15.21h0c4.15,14.45-3.09,22.29-10.55,24.63A2.65,2.65,0,0,1,26.45,126.59Z"/><path class="cls-1" d="M24.5,96.88a2.44,2.44,0,0,1-2.44-2.44A41.51,41.51,0,0,1,63.52,53C86,53,94.08,66,100,75.47c2.77,4.47,5.17,8.34,8.21,9.33a2.44,2.44,0,0,1-1.45,4.66l0,0c-4.75-1.54-7.58-6.11-10.86-11.4-5.57-9-12.5-20.18-32.29-20.18A36.61,36.61,0,0,0,26.94,94.44,2.44,2.44,0,0,1,24.5,96.88Z"/><path class="cls-1" d="M97.66,62.73a2.42,2.42,0,0,1-2.08-1.17c-2.4-4-15.75-13.46-34.5-13.46-19.51,0-29.94,10-32.06,13.46a2.44,2.44,0,0,1-4.26-2.38l.09-.15c2.67-4.4,14.38-15.81,36.23-15.81C81.63,43.22,96.4,53.51,99.75,59a2.44,2.44,0,0,1-.83,3.35A2.42,2.42,0,0,1,97.66,62.73Z"/><path class="cls-1" d="M87.91,43.22a2.44,2.44,0,0,1-.8-.13c-1-.34-1.92-.69-2.85-1a55.27,55.27,0,0,0-23.18-3.71c-11.71,0-14.34,1.35-18,3.21-.9.47-1.85.95-3,1.47a2.44,2.44,0,0,1-2-4.47c1-.46,1.9-.91,2.73-1.34,4.06-2.09,7.3-3.75,20.19-3.75a59.91,59.91,0,0,1,24.88,4c.89.33,1.79.67,2.74,1a2.44,2.44,0,0,1-.79,4.76Z"/><polyline class="cls-2" points="7.98 35.33 7.98 9.04 34.28 9.04"/><polyline class="cls-2" points="34.28 174.88 7.98 174.88 7.98 148.58"/><polyline class="cls-2" points="123.96 148.58 123.96 174.88 97.67 174.88"/><polyline class="cls-2" points="97.67 9.04 123.96 9.04 123.96 35.33"/></svg>