<svg id="Capa_2" data-name="Capa 2" xmlns="http://www.w3.org/2000/svg" viewBox="0 0 135.55 169.06"><defs><style>.cls-1{fill:#3d3d3b;}</style></defs><title>insumos</title><path class="cls-1" d="M87.77,40.33l19.9,19.91L57.28,110.62,37.39,90.72Zm35-4.8-8.88-8.88a8.82,8.82,0,0,0-12.45,0L93,35.16l19.91,19.9,9.92-9.92A6.78,6.78,0,0,0,122.78,35.53ZM27,118.7a2.26,2.26,0,0,0,2.74,2.69L51.9,116,32,96.11Z"/><path class="cls-1" d="M93.67,152.31a3,3,0,0,1-2.78-1.85c-3-7.16-6.83-11.59-11.48-13.17s-10.54-.43-17.35,3.48c-7,4-13.84,5.09-20.34,3.17-11.31-3.34-17.22-14.59-17.47-15.06a3,3,0,1,1,5.33-2.76c.08.14,5.06,9.5,13.88,12.08,4.85,1.42,10.1.53,15.61-2.63,8.38-4.81,15.87-6.14,22.27-4s11.44,7.73,15.1,16.54a3,3,0,0,1-1.62,3.93A3.14,3.14,0,0,1,93.67,152.31Z"/></svg>