<svg id="Capa_2" data-name="Capa 2" xmlns="http://www.w3.org/2000/svg" viewBox="0 0 430 430"><defs><style>.cls-1{fill:#fff;fill-rule:evenodd;}</style></defs><title>insumos</title><path class="cls-1" d="M292.2,297.75a245.28,245.28,0,0,1-19.74,35.8l-1.85,2.76-.05.06-.89,1.31-.07.09-.88,1.28-.08.13-.88,1.24-.11.15c-1,1.37-1.94,2.74-2.93,4.1l-.05.06-.81,1.09-.21.28-.79,1.06-.23.31-.77,1-.26.33-1,1.29-.05.07-.75,1-.3.39-.72.93-.33.42-.71.89-.36.46-.87,1.09-.86,1.07-.41.51-.3.36-.67.81-.12.15-.63.76-.47.56-.86,1-.82,1-.53.62,0,0-1,1.1-.14.16-.54.63-.58.66-.92,1.06-.21.24-.5.56-.64.72-1,1.09-.17.19-.45.51-.7.77-.43.47-.14.15-1,1.08-.76.83-.38.41-.79.84-.36.38-.82.87-.64.67L237,377.42l-.28.3-.18.18-1.66,1.68-1,1-.73.72-1,1-.18.18-1.85,1.81-1,.95-1.76,1.69-.16.15-.07.07-.3.28-1.44,1.35L224.13,390l-1.79,1.65-.16.14,0,0-.16.14-1.91,1.72-.38.35-.11.09-.11.09q-2.33,2.07-4.68,4.09l-.17.15-.22.19-2.34,2-.28.24-1,.83-.78.65-1,.84-2.09,1.7-.41.33-.91.72-.85.68-1.05.83c-1.56,1.22-3.12,2.44-4.7,3.63-3.79-.31-7.58-.74-11.34-1.27,28-21.51,56-49.72,77.13-81a255.25,255.25,0,0,0,18.18-31.3,33.4,33.4,0,0,0,9.27.28m-64,113.5q-7.95.54-15.89.42A338.12,338.12,0,0,0,249,377.51l.1-.1.25-.28,1.78-1.94.09-.1.3-.33.75-.84.76-.85.28-.31.35-.4.69-.78.82-.93.21-.25.4-.45.63-.73.76-.89.7-.82.57-.68.84-1,.31-.37,1.86-2.24.53-.65.46-.57,1-1.21.57-.71.4-.51.88-1.11.1-.12.61-.78.35-.45.63-.81.09-.11L268,355l.3-.4.67-.87.05-.07.91-1.22.26-.33.7-.95.95-1.28.2-.28.74-1,.19-.25.75-1.05.15-.22.78-1.08.13-.18.79-1.13.11-.15.81-1.16.08-.12.82-1.2.67-1,.23-.33.05-.07.84-1.26,0,0,.87-1.3c20.58-31.13,34.37-65.41,37.19-100.45.12-1.54.22-2.93.29-4.13h0q.14-2.43.18-4.11c0-7.08-8.88-5.79-9.15.24,0,1.55-.09,2.85-.16,3.89h0c-.08,1.49-.17,2.79-.26,3.92a180,180,0,0,1-11.19,48.7,17.56,17.56,0,0,1-9.11.49c8.34-19.83,13.31-40.28,13.49-60.65.07-7.44,3-12.32,6.83-14.33a8.81,8.81,0,0,1,5.26-1,10.38,10.38,0,0,1,5.6,2.7c5.07,4.51,8.35,14.2,5.91,30-5.74,37.24-17.8,70.11-35.29,98.83A257.36,257.36,0,0,1,228.23,411.25Zm-35.09-17.1c-5.7,4.73-11.51,9.27-17.41,13.56q-5-1-10-2.3c5.76-4.15,11.4-8.53,16.91-13.09A48.77,48.77,0,0,0,193.14,394.15Zm99.4-39.95q2.47-3.78,4.86-7.7C315.54,316.73,328,282.73,334,244.26c2.95-19.14-1.65-31.43-8.53-37.58a19.1,19.1,0,0,0-10.31-4.8,18.46,18.46,0,0,0-11,2c-6.71,3.54-11.87,11.3-12,22.57-.3,33.24-14.25,67-35,97.66a335.11,335.11,0,0,1-53.29,60.71,38.22,38.22,0,0,1-11.3-1.14,381.15,381.15,0,0,0,36.16-37.17c24.27-28.59,43-59.51,50.36-86.25,3.74-13.57,4.45-23.16,5.42-36.39l.38-5.14c1.19-15.57,8.37-25.25,17.26-29.27A24.93,24.93,0,0,1,314,187.34a27.14,27.14,0,0,1,12,3.74c9.78,5.78,17.25,18.1,16.93,36.82-.56,32-9.12,65.59-24.5,97.82a302,302,0,0,1-15.27,28.12C298.64,355.16,294.77,355.24,292.54,354.2Zm-30,51.66c-6.13,1.53-12.31,2.75-18.5,3.68a260.13,260.13,0,0,0,42.38-46.43c2.57.89,6.62,1,10.39.61A296.18,296.18,0,0,1,262.58,405.86Zm32.06-11q-7.69,3.44-15.58,6.14a301.12,301.12,0,0,0,47.67-71.85c15.94-33.41,24.81-68.31,25.39-101.57.39-22.15-8.89-37-21-44.15a35.74,35.74,0,0,0-16-5,34.56,34.56,0,0,0-16.42,3c-11.87,5.37-21.4,17.71-22.89,37.17l-.4,5.16c-.94,12.74-1.62,22-5.12,34.67-7,25.41-25,55-48.42,82.61-19.55,23-43.29,44.83-67.09,61.24q-6.89-2.2-13.61-4.92c30.29-20.12,59-45.48,80.68-74.21,23.62-31.3,38.25-65.26,40-98.53,1.59-29.61,13.07-48.5,27.64-57.53a41.15,41.15,0,0,1,41.06-1.59c14.11,7.31,25.46,23,28,46.35,3.74,34.53-2.64,71.07-15.45,104.28C331,347.38,314.79,374.14,294.64,394.82Zm42.78-25.93c-4.55,3.61-9.29,7.07-14.24,10.33-2.55,1.68-5.15,3.3-7.76,4.85,14.89-19,26.62-40.52,36.15-65.24,13.3-34.49,19.93-72.48,16-108.44-2.86-26.45-16-44.35-32.45-52.85a50.55,50.55,0,0,0-50.3,2.08c-17,10.56-30.42,32-32.19,65-1.59,31.37-15.54,63.59-38.06,93.45C192.54,347.35,162.21,373,131.08,393q-7.76-3.65-15.21-8a276.3,276.3,0,0,0,59.76-46c3.64-3.7,7.16-7.49,10.52-11.34s6.59-7.8,9.65-11.79v0c17.56-22.92,30.83-48.44,37.94-74.86q2.08-7.69,3.46-15.51c.9-5.19,1.56-10.41,2-15.62h0v-.08c1.51-22.6,8.65-40,18.95-52.44a68.28,68.28,0,0,1,6.35-6.67,63.34,63.34,0,0,1,7-5.52h0a62.88,62.88,0,0,1,21.75-9.53c1.49-.35,3-.64,4.5-.86s3-.41,4.54-.53h.09a65.37,65.37,0,0,1,23.48,2.41q2.22.64,4.44,1.47c1.46.54,2.92,1.13,4.37,1.79h0c13.57,6.14,25.62,17.07,33.66,32.67a82.23,82.23,0,0,1,4.22,9.67,92.61,92.61,0,0,1,3.21,10.72l0,.19,0,.11h0v0c4.25,15.95,4.77,35.51,2.58,56-.46,4.35-1,8.75-1.75,13.16s-1.51,8.85-2.42,13.25c-.55,2.67-1.15,5.37-1.78,8.08-6,25.61-13.68,49.2-23.31,67.31-1.88,3.51-3.83,6.82-5.85,9.9A90.3,90.3,0,0,1,337.42,368.89ZM106.82,50.79c90.73-59.77,212.76-34.71,272.5,56,50.24,76.25,40.44,174.65-17.9,239.58a317.45,317.45,0,0,0,15.71-42.15c.92-3.13,1.81-6.29,2.65-9.44s1.63-6.27,2.35-9.31h0c4.73-20.09,7.51-40.75,7.47-59.74q0-6.39-.46-12.52c-.3-4.07-.75-8-1.37-11.86a109.52,109.52,0,0,0-2.32-11c-5-21.4-15.68-37.69-29.17-48.75A77.2,77.2,0,0,0,339.37,131l-.13-.06a76,76,0,0,0-26.55-6.61c-1.76-.1-3.54-.15-5.3-.14s-3.54.1-5.3.24h0a74,74,0,0,0-26.42,7.17c-1.63.79-3.25,1.65-4.83,2.57s-3.14,1.91-4.67,2.95l-.08.06h0c-14.16,9.73-25.79,24.93-32.06,45.68a109.93,109.93,0,0,0-3,12.71,128.5,128.5,0,0,0-1.69,14h0v0c-2,25.39-10.45,50.63-23.73,74.09q-3.87,6.85-8.28,13.48c-2.92,4.42-6,8.76-9.28,13h0C172.21,330.78,151.13,349,128.6,364c-4.37,2.91-8.82,5.7-13.28,8.35q-5.1,3-10.25,5.86a195.78,195.78,0,0,1-54.39-55C-9,232.58,16.08,110.57,106.82,50.79Z"/></svg>