<svg id="Capa_2" data-name="Capa 2" xmlns="http://www.w3.org/2000/svg" viewBox="0 0 186.73 188.92"><defs><style>.cls-1{fill:#fff;}</style></defs><title>insumos</title><path class="cls-1" d="M175.06,50.8c-3.74-4.28-24.86-5.88-28.16,27.7-.36,1.66-1.75,5.25-7,6.24a11.58,11.58,0,0,1-8.69-2.07,43.33,43.33,0,0,1-5.36-5h0L86.39,25.32a9.77,9.77,0,0,0-15.6,11.77l32,42.42a2.78,2.78,0,0,1-.57,3.8c-1.9,1.46-3.76-.62-3.76-.62L56.65,32.61a9.77,9.77,0,1,0-15,12.52l48.06,57.56s1.18,1.39,0,2.39a1.74,1.74,0,0,1-2.48,0L46.6,62.71A9.77,9.77,0,1,0,32.5,76.24l45.87,47.84a1.71,1.71,0,0,1,.19,2.29c-1.09,1.37-2.63,0-2.63,0L48.69,102.5a9.77,9.77,0,1,0-12.88,14.7l51.25,44.9a49.18,49.18,0,0,0,84.33-43.7c-.49-4.36-1.36-12.76-1.66-21-.47-12.59-.82-21.34,4.38-30.8C177.65,60.21,178.2,54.4,175.06,50.8Z"/><path class="cls-1" d="M100.57,28.28a94.84,94.84,0,0,1,21.77,26.21,3.2,3.2,0,0,0,2.78,1.63,3.25,3.25,0,0,0,1.56-.41,3.19,3.19,0,0,0,1.22-4.34,101.2,101.2,0,0,0-23.24-28,3.18,3.18,0,1,0-4.09,4.88Z"/><path class="cls-1" d="M109.28,17.88a108.43,108.43,0,0,1,24.89,30c.52.91,1,1.84,1.51,2.77a3.19,3.19,0,0,0,2.82,1.7A3.14,3.14,0,0,0,140,52a3.18,3.18,0,0,0,1.34-4.3c-.51-1-1-2-1.6-2.94A114.71,114.71,0,0,0,113.37,13a3.18,3.18,0,1,0-4.09,4.88Z"/><path class="cls-1" d="M49.77,145.48A94.87,94.87,0,0,1,28,119.27a3.19,3.19,0,1,0-5.55,3.13,101,101,0,0,0,23.24,28,3.18,3.18,0,0,0,4.09-4.88Z"/><path class="cls-1" d="M41.06,155.88a108.28,108.28,0,0,1-24.89-30c-.52-.91-1-1.84-1.51-2.77a3.19,3.19,0,1,0-5.64,3c.51,1,1.05,2,1.6,2.93A114.56,114.56,0,0,0,37,160.76a3.18,3.18,0,0,0,4.09-4.88Z"/></svg>